<?xml version="1.0" encoding="UTF-8" standalone="no"?>
<!-- Created with Inkscape (http://www.inkscape.org/) -->

<svg
   width="297mm"
   height="420mm"
   viewBox="0 0 297 420"
   version="1.1"
   id="svg1"
   xml:space="preserve"
   inkscape:version="1.3 (0e150ed, 2023-07-21)"
   sodipodi:docname="svgfont.svg"
   xmlns:inkscape="http://www.inkscape.org/namespaces/inkscape"
   xmlns:sodipodi="http://sodipodi.sourceforge.net/DTD/sodipodi-0.dtd"
   xmlns="http://www.w3.org/2000/svg"
   xmlns:svg="http://www.w3.org/2000/svg"><sodipodi:namedview
     id="namedview1"
     pagecolor="#ffffff"
     bordercolor="#000000"
     borderopacity="0.25"
     inkscape:showpageshadow="2"
     inkscape:pageopacity="0.0"
     inkscape:pagecheckerboard="0"
     inkscape:deskcolor="#d1d1d1"
     inkscape:document-units="mm"
     inkscape:zoom="1.0652534"
     inkscape:cx="879.13355"
     inkscape:cy="244.07338"
     inkscape:window-width="1856"
     inkscape:window-height="1631"
     inkscape:window-x="1515"
     inkscape:window-y="195"
     inkscape:window-maximized="0"
     inkscape:current-layer="layer1" /><defs
     id="defs1"><rect
       x="563.13825"
       y="0.011338601"
       width="559.37014"
       height="396.85039"
       id="rect2" /></defs><g
     inkscape:label="Layer 1"
     inkscape:groupmode="layer"
     id="layer1"><rect
       style="fill:#ffffff;stroke:#000000;stroke-width:0.00600001"
       id="rect1"
       width="148"
       height="105"
       x="148.99699"
       y="0.0030000049" /><g
       inkscape:label="Hershey Text"
       style="fill:none;stroke:#000000;stroke-linecap:round;stroke-linejoin:round"
       transform="matrix(0.21749245,0,0,0.21749245,24.706594,10.869807)"
       id="g212"><g
         transform="translate(583.208,75.0518)"
         id="g182"><path
           d="m 135,-6.3 h 397 m -3,44.1 H 406 L 394,50.4 V 482 m -7,69 h 174 l 31,-34 13,-133 m 44,0 -28,268 M 592,602 H 129 M 53.5,655 25.2,378 m 50.4,69 6.3,54 19.1,31 28,10 H 280 V 56.7 L 271,37.8 H 135 M 337,50.4 V 545"
           style="stroke-width:0.1958in"
           transform="scale(0.0746667,-0.0746667)"
           id="path170" /><path
           d="M 53.5,422 37.8,309 44.1,220 94.5,85.1 173,9.45 306,-34.6 416,-15.8 529,50.4 595,161 621,274 608,413 548,523 432,605 299,624 202,598 145,558 m 35,-51 -35,-69 -6,-95 12,-123 35,-103 63,-69.8 107,-18.8 94,47.2 41,85.4 10,126 -10,110 -34,94 -57,63 -69,16 M 107,454 91.4,350 v -89 l 15.6,-69 16,-50 25,-47.5 m 388,63.5 22,85 v 100 l -22,98 -35,66"
           style="stroke-width:0.1958in"
           transform="matrix(0.0746667,0,0,-0.0746667,48.6827,0)"
           id="path171" /><path
           d="m 41,561 h 101 l 12,-22 V 161 l 22,-63.3 38,-50.5 41,-34.6 47,-22.05 57,-12.65 h 66 l 79,18.95 50,34.65 41,53.6 19,37.9 10,53 v 360 l 19,18 h 104 m 3,51 H 447 m -3,-44 h 98 l 25,-16 V 158 L 548,117 513,72.4 472,40.9 419,25.2 H 365 L 315,44.1 287,69.3 268,110 m -44,7 -19,41 3,56 V 551 M 37.8,602 H 391 m 0,-48 H 280 L 265,542 V 236"
           style="stroke-width:0.1958in"
           transform="matrix(0.0746667,0,0,-0.0746667,97.3654,0)"
           id="path172" /><path
           d="m 510,391 -15,91 -57,66 -85,22 -101,-19 -69,-66 -35,-120 13,-151 31,-82 79,-81.6 116,-15.8 92,31.6 38,34.8 31,41 m -394,-41 -34,60 -19,59 -6.5,104 9.5,70 25,72 M 598,132 558,56.7 472,-3.15 372,-25.2 l -95,3.1 -107,41 -91.2,98.1 -41,103 v 164 l 56.7,136 100.5,69 117,38 57,-3 72,-19 m 57,60 3,-101 m 38,98 22,-268"
           style="stroke-width:0.1958in"
           transform="matrix(0.0746667,0,0,-0.0746667,153.365,0)"
           id="path173" /><path
           d="M 18.9,-9.45 H 381 m 35,0 H 775 M 772,34.6 H 658 l -15,19 V 539 l 19,19 h 113 m 0,40 H 422 m -44,0 H 15.8 M 22,558 h 110 l 13,-26 V 56.7 L 126,40.9 H 15.8 M 375,37.8 H 280 L 261,56.7 V 302 h 271 m 0,-63 V 59.9 L 510,37.8 H 416 M 586,50.4 V 558 m -164,3 h 88 l 26,-25 V 369 L 517,350 H 261 m -6,63 v 129 l 19,16 h 107 m -176,0 V 44.1"
           style="stroke-width:0.1958in"
           transform="matrix(0.0746667,0,0,-0.0746667,200.629,0)"
           id="path174" /><path
           d="m 22,6.3 h 400 l 110,31.5 60,44.1 54,79.1 25,66 3,79 -3,28 -6,63 -48,88 -44,47 -60,35 -47,19 -47,12 H 15.8 m 3.1,-44 H 132 l 19,-18 V 56.7 L 139,34.6 H 15.8 M 239,47.2 h 155 l 63,22.1 44,34.7 38,54 19,81 3,85 -10,76 -28,66 -44,54 -47,22 -67,9 H 236 m 19,-53 V 110 M 205,50.4 V 551 m 368,-85 32,-75 9,-57 3,-66 -9,-60 -16,-47 -16,-29"
           style="stroke-width:0.1958in"
           transform="matrix(0.0746667,0,0,-0.0746667,260.139,0)"
           id="path175" /><path
           d="M 34.6,6.3 H 595 v -94.5 m 51,0 V 195 m -38,-60 -6,-53.1 -26,-22 H 252 l 16,15.7 V 249 m 0,31 h 69 l 38,-12 12,-35 v -79 h 38 v 309 m -38,-44 v -50 l -12,-26 -22,-12 h -82 v 154 m -25,69 h 252 l 28,-22 16,-37 3,-89 m -6,196 H 28.4 M 25.2,561 H 126 l 25,-10 13,-22 V 69.3 L 145,37.8 H 25.2 M 214,69.3 V 532 M 586,416 564,677"
           style="stroke-width:0.1958in"
           transform="matrix(0.0746667,0,0,-0.0746667,313.301,0)"
           id="path176" /><path
           d="M 88.2,-40.9 V 53.6 M 44.1,-44.1 V 243 m 47.3,0 v -63 l 18.6,-54 38,-37.8 66,-37.8 104,-12.6 79,28.4 35,37.8 3,41 -13,38 -44,28 -123,57 -104,60 -62.8,69 -22.1,60 12.7,56 56.2,63 57,22 85,13 h 47 l 54,-16 m 63,48 v -89 m 47,89 7,-249 m -51,3 v 63 l -22,41 -35,38 -44,15 -53,10 -51,-6 -56,-26 -19,-41 28,-59 47,-32 152,-76 59,-31 63,-57 29,-72 L 526,85.1 479,40.9 422,9.45 346,-9.45 H 243 L 151,15.8 m 325,85.2 15,41 -6,41 -31,37 -51,35 -173,88 -50,32 -38,41 -19,44 3,16"
           style="stroke-width:0.1958in"
           transform="matrix(0.0746667,0,0,-0.0746667,363.403,0)"
           id="path177" /><path
           d="m 22,-6.3 h 372 m -3,44.1 H 280 L 261,56.7 V 536 l 26,25 h 110 m 0,41 H 15.8 m 0,-38 H 135 l 19,-19 V 59.9 L 132,37.8 H 22 m 186,9.4 V 558"
           style="stroke-width:0.1958in"
           transform="matrix(0.0746667,0,0,-0.0746667,406.411,0)"
           id="path178" /><path
           d="m 302,246 h 180 l 19,-16 V 117 L 463,69.3 403,31.5 302,28.4 202,81.9 154,173 l -25,120 13,107 44,110 72,57 70,9 69,-9 47,-35 35,-47 16,-44 v -54 m 56,0 -25,284 m -41,-3 6,-104 M 422,602 346,627 220,608 126,554 53.5,466 22,359 V 249 L 63,120 139,34.6 233,-9.45 365,-28.4 466,6.3 517,47.2 M 120,476 85,378 75.6,287 97.6,173 135,113 M 548,239 V 97.7 m 16,-69.3 v -88.3 m 38,-3.1 v 296 l 15,16 h 82 m 3,41 H 306"
           style="stroke-width:0.1958in"
           transform="matrix(0.0746667,0,0,-0.0746667,437.472,0)"
           id="path179" /><path
           d="M 25.2,0 H 331 m -3,40.9 H 217 L 202,56.7 V 472 m 31,-50 315,-434.6 h 19 m 35,0 V 539 l 19,19 h 100 m 3,47 H 419 m 0,-44 h 104 l 22,-22 V 161 M 501,230 236,598 H 22 M 18.9,558 H 126 l 25,-22 V 63 L 129,40.9 H 25.2 M 227,523 529,117"
           style="stroke-width:0.1958in"
           transform="matrix(0.0746667,0,0,-0.0746667,490.411,0)"
           id="path180" /><path
           d="M 34.6,6.3 H 595 v -94.5 m 51,0 V 195 m -38,-60 -6,-53.1 -26,-22 H 252 l 16,15.7 V 249 m 0,31 h 69 l 38,-12 12,-35 v -79 h 38 v 309 m -38,-44 v -50 l -12,-26 -22,-12 h -82 v 154 m -25,69 h 252 l 28,-22 16,-37 3,-89 m -6,196 H 28.4 M 25.2,561 H 126 l 25,-10 13,-22 V 69.3 L 145,37.8 H 25.2 M 214,69.3 V 532 M 586,416 564,677"
           style="stroke-width:0.1958in"
           transform="matrix(0.0746667,0,0,-0.0746667,545.664,0)"
           id="path181" /><path
           d="m 41,3.15 h 359 m 0,37.75 H 293 L 277,56.7 V 230 m 218,13 94,31 57,47 34,60 -3,69 -25,60 -79,54 -60,25 -100,13 H 37.8 M 34.6,558 H 151 l 13,-16 V 63 L 145,40.9 H 44.1 M 220,47.2 V 529 m 32,22 h 158 l 47,-6 34,-13 35,-22 28,-34 7,-57 -7,-57 -44,-47 -53,-22 -57,-3 H 277 v 192 m 315,9 29,-56 V 391 L 602,340 586,321 M 306,236 h 75 l 29,-16 18,-22 32,-37 88,-129.5 32,-28.35 22,-12.6 h 47 L 696,0 750,9.45 m 3,40.95 -54,-12.6 h -19 l -41,44.1 -72,107.1 -22,25 -16,6 m -28,-37 38,-41 41,-69.6 18,-25.2 13,-9.4"
           style="stroke-width:0.1958in"
           transform="matrix(0.0746667,0,0,-0.0746667,595.766,0)"
           id="path182" /></g><g
         transform="translate(610.088,168.385)"
         id="g193"><path
           d="M 12.6,561 H 101 L 337,-15.8 h 54 L 539,346 m 15,60 167,-418.6 h 51 l 227,554.6 12.2,16 h 88.1 m 0,47 H 794 m 6,-47 h 110 22 l 7,-26 -164,-403 m -19,57 -154,375 h 113 m 3,41 H 397 m 0,-44 h 88 L 529,463 387,123 m -15,60 -155,375 h 41 m 7,44 H 12.6 M 173,529 350,97.7 M 558,532 731,101"
           style="stroke-width:0.1958in"
           transform="scale(0.0746667,-0.0746667)"
           id="path183" /><path
           d="M 53.5,422 37.8,309 44.1,220 94.5,85.1 173,9.45 306,-34.6 416,-15.8 529,50.4 595,161 621,274 608,413 548,523 432,605 299,624 202,598 145,558 m 35,-51 -35,-69 -6,-95 12,-123 35,-103 63,-69.8 107,-18.8 94,47.2 41,85.4 10,126 -10,110 -34,94 -57,63 -69,16 M 107,454 91.4,350 v -89 l 15.6,-69 16,-50 25,-47.5 m 388,63.5 22,85 v 100 l -22,98 -35,66"
           style="stroke-width:0.1958in"
           transform="matrix(0.0746667,0,0,-0.0746667,82.32,0)"
           id="path184" /><path
           d="m 41,3.15 h 359 m 0,37.75 H 293 L 277,56.7 V 230 m 218,13 94,31 57,47 34,60 -3,69 -25,60 -79,54 -60,25 -100,13 H 37.8 M 34.6,558 H 151 l 13,-16 V 63 L 145,40.9 H 44.1 M 220,47.2 V 529 m 32,22 h 158 l 47,-6 34,-13 35,-22 28,-34 7,-57 -7,-57 -44,-47 -53,-22 -57,-3 H 277 v 192 m 315,9 29,-56 V 391 L 602,340 586,321 M 306,236 h 75 l 29,-16 18,-22 32,-37 88,-129.5 32,-28.35 22,-12.6 h 47 L 696,0 750,9.45 m 3,40.95 -54,-12.6 h -19 l -41,44.1 -72,107.1 -22,25 -16,6 m -28,-37 38,-41 41,-69.6 18,-25.2 13,-9.4"
           style="stroke-width:0.1958in"
           transform="matrix(0.0746667,0,0,-0.0746667,131.003,0)"
           id="path185" /><path
           d="M 18.9,3.15 H 350 M 346,37.8 H 261 V 217 l 48,67 217,-287.15 28,-18.95 35,-3.1 38,3.1 97,28.4 M 394,321 432,293 463,261 617,50.4 630,40.9 h 94 M 353,337 l 135,176 48,35 34,10 h 98 m 3,47 H 425 m -63,-3 H 22 m 0,-44 h 107 l 16,-16 V 56.7 L 126,37.8 H 18.9 M 205,50.4 V 558 m 53,-199 v 183 l 19,19 h 79 m 69,-3 h 35 L 258,296 m 126,-25 73,-95 82,-119.3 34,-28.3"
           style="stroke-width:0.1958in"
           transform="matrix(0.0746667,0,0,-0.0746667,187.003,0)"
           id="path186" /><path
           d="m 22,-6.3 h 372 m -3,44.1 H 280 L 261,56.7 V 536 l 26,25 h 110 m 0,41 H 15.8 m 0,-38 H 135 l 19,-19 V 59.9 L 132,37.8 H 22 m 186,9.4 V 558"
           style="stroke-width:0.1958in"
           transform="matrix(0.0746667,0,0,-0.0746667,241.808,0)"
           id="path187" /><path
           d="M 25.2,0 H 331 m -3,40.9 H 217 L 202,56.7 V 472 m 31,-50 315,-434.6 h 19 m 35,0 V 539 l 19,19 h 100 m 3,47 H 419 m 0,-44 h 104 l 22,-22 V 161 M 501,230 236,598 H 22 M 18.9,558 H 126 l 25,-22 V 63 L 129,40.9 H 25.2 M 227,523 529,117"
           style="stroke-width:0.1958in"
           transform="matrix(0.0746667,0,0,-0.0746667,272.869,0)"
           id="path188" /><path
           d="m 302,246 h 180 l 19,-16 V 117 L 463,69.3 403,31.5 302,28.4 202,81.9 154,173 l -25,120 13,107 44,110 72,57 70,9 69,-9 47,-35 35,-47 16,-44 v -54 m 56,0 -25,284 m -41,-3 6,-104 M 422,602 346,627 220,608 126,554 53.5,466 22,359 V 249 L 63,120 139,34.6 233,-9.45 365,-28.4 466,6.3 517,47.2 M 120,476 85,378 75.6,287 97.6,173 135,113 M 548,239 V 97.7 m 16,-69.3 v -88.3 m 38,-3.1 v 296 l 15,16 h 82 m 3,41 H 306"
           style="stroke-width:0.1958in"
           transform="matrix(0.0746667,0,0,-0.0746667,328.123,0)"
           id="path189" /><path
           d="M 12.6,561 H 101 L 337,-15.8 h 54 L 539,346 m 15,60 167,-418.6 h 51 l 227,554.6 12.2,16 h 88.1 m 0,47 H 794 m 6,-47 h 110 22 l 7,-26 -164,-403 m -19,57 -154,375 h 113 m 3,41 H 397 m 0,-44 h 88 L 529,463 387,123 m -15,60 -155,375 h 41 m 7,44 H 12.6 M 173,529 350,97.7 M 558,532 731,101"
           style="stroke-width:0.1958in"
           transform="matrix(0.0746667,0,0,-0.0746667,409.286,0)"
           id="path190" /><path
           d="m 22,-6.3 h 372 m -3,44.1 H 280 L 261,56.7 V 536 l 26,25 h 110 m 0,41 H 15.8 m 0,-38 H 135 l 19,-19 V 59.9 L 132,37.8 H 22 m 186,9.4 V 558"
           style="stroke-width:0.1958in"
           transform="matrix(0.0746667,0,0,-0.0746667,491.606,0)"
           id="path191" /><path
           d="m 123,-6.3 h 397 m 0,44.1 H 397 L 381,50.4 V 482 m -3,69 h 173 l 32,-34 9,-133 m 44,0 -25,268 M 583,602 H 120 M 44.1,655 15.8,378 m 47.2,69 9.5,54 18.9,31 25.6,10 H 271 V 56.7 L 258,37.8 H 126 M 328,50.4 V 545"
           style="stroke-width:0.1958in"
           transform="matrix(0.0746667,0,0,-0.0746667,522.667,0)"
           id="path192" /><path
           d="M 18.9,-9.45 H 381 m 35,0 H 775 M 772,34.6 H 658 l -15,19 V 539 l 19,19 h 113 m 0,40 H 422 m -44,0 H 15.8 M 22,558 h 110 l 13,-26 V 56.7 L 126,40.9 H 15.8 M 375,37.8 H 280 L 261,56.7 V 302 h 271 m 0,-63 V 59.9 L 510,37.8 H 416 M 586,50.4 V 558 m -164,3 h 88 l 26,-25 V 369 L 517,350 H 261 m -6,63 v 129 l 19,16 h 107 m -176,0 V 44.1"
           style="stroke-width:0.1958in"
           transform="matrix(0.0746667,0,0,-0.0746667,570.379,0)"
           id="path193" /></g><g
         transform="translate(650.296,261.719)"
         id="g203"><path
           d="M 28.4,-6.3 H 410 m 0,44.1 H 287 L 268,56.7 V 158 m 0,44 h 167 l 88,12 91,44 51,73 15,79 -15,62 -70,76 -85,41 -63,9 H 28.4 m 0,-40 H 139 l 22,-22 V 59.9 L 139,37.8 H 28.4 M 271,482 V 252 h 170 l 57,22 41,41 22,47 -3,85 -26,54 -60,38 -62,15 H 252 M 220,520 V 40.9 m 360,463.1 25,-47 16,-38 v -35 l -16,-47 -29,-38"
           style="stroke-width:0.1958in"
           transform="scale(0.0746667,-0.0746667)"
           id="path194" /><path
           d="M 34.6,6.3 H 595 v -94.5 m 51,0 V 195 m -38,-60 -6,-53.1 -26,-22 H 252 l 16,15.7 V 249 m 0,31 h 69 l 38,-12 12,-35 v -79 h 38 v 309 m -38,-44 v -50 l -12,-26 -22,-12 h -82 v 154 m -25,69 h 252 l 28,-22 16,-37 3,-89 m -6,196 H 28.4 M 25.2,561 H 126 l 25,-10 13,-22 V 69.3 L 145,37.8 H 25.2 M 214,69.3 V 532 M 586,416 564,677"
           style="stroke-width:0.1958in"
           transform="matrix(0.0746667,0,0,-0.0746667,53.1627,0)"
           id="path195" /><path
           d="M 25.2,0 H 331 m -3,40.9 H 217 L 202,56.7 V 472 m 31,-50 315,-434.6 h 19 m 35,0 V 539 l 19,19 h 100 m 3,47 H 419 m 0,-44 h 104 l 22,-22 V 161 M 501,230 236,598 H 22 M 18.9,558 H 126 l 25,-22 V 63 L 129,40.9 H 25.2 M 227,523 529,117"
           style="stroke-width:0.1958in"
           transform="matrix(0.0746667,0,0,-0.0746667,103.264,0)"
           id="path196" /><path
           d="M 28.4,-6.3 H 410 m 0,44.1 H 287 L 268,56.7 V 158 m 0,44 h 167 l 88,12 91,44 51,73 15,79 -15,62 -70,76 -85,41 -63,9 H 28.4 m 0,-40 H 139 l 22,-22 V 59.9 L 139,37.8 H 28.4 M 271,482 V 252 h 170 l 57,22 41,41 22,47 -3,85 -26,54 -60,38 -62,15 H 252 M 220,520 V 40.9 m 360,463.1 25,-47 16,-38 v -35 l -16,-47 -29,-38"
           style="stroke-width:0.1958in"
           transform="matrix(0.0746667,0,0,-0.0746667,186.741,0)"
           id="path197" /><path
           d="M 25.2,-6.3 H 558 v -75.6 m 47,0 V 198 M 573,139 V 94.5 L 536,59.9 H 239 m 29,44.1 v 432 l 22,22 h 116 m 4,44 H 22 M 18.9,558 H 142 l 19,-19 V 56.7 L 142,40.9 H 25.2 M 211,523 V 81.9"
           style="stroke-width:0.1958in"
           transform="matrix(0.0746667,0,0,-0.0746667,239.904,0)"
           id="path198" /><path
           d="M 53.5,422 37.8,309 44.1,220 94.5,85.1 173,9.45 306,-34.6 416,-15.8 529,50.4 595,161 621,274 608,413 548,523 432,605 299,624 202,598 145,558 m 35,-51 -35,-69 -6,-95 12,-123 35,-103 63,-69.8 107,-18.8 94,47.2 41,85.4 10,126 -10,110 -34,94 -57,63 -69,16 M 107,454 91.4,350 v -89 l 15.6,-69 16,-50 25,-47.5 m 388,63.5 22,85 v 100 l -22,98 -35,66"
           style="stroke-width:0.1958in"
           transform="matrix(0.0746667,0,0,-0.0746667,287.168,0)"
           id="path199" /><path
           d="m 123,-6.3 h 397 m 0,44.1 H 397 L 381,50.4 V 482 m -3,69 h 173 l 32,-34 9,-133 m 44,0 -25,268 M 583,602 H 120 M 44.1,655 15.8,378 m 47.2,69 9.5,54 18.9,31 25.6,10 H 271 V 56.7 L 258,37.8 H 126 M 328,50.4 V 545"
           style="stroke-width:0.1958in"
           transform="matrix(0.0746667,0,0,-0.0746667,335.851,0)"
           id="path200" /><path
           d="m 123,-6.3 h 397 m 0,44.1 H 397 L 381,50.4 V 482 m -3,69 h 173 l 32,-34 9,-133 m 44,0 -25,268 M 583,602 H 120 M 44.1,655 15.8,378 m 47.2,69 9.5,54 18.9,31 25.6,10 H 271 V 56.7 L 258,37.8 H 126 M 328,50.4 V 545"
           style="stroke-width:0.1958in"
           transform="matrix(0.0746667,0,0,-0.0746667,383.563,0)"
           id="path201" /><path
           d="M 34.6,6.3 H 595 v -94.5 m 51,0 V 195 m -38,-60 -6,-53.1 -26,-22 H 252 l 16,15.7 V 249 m 0,31 h 69 l 38,-12 12,-35 v -79 h 38 v 309 m -38,-44 v -50 l -12,-26 -22,-12 h -82 v 154 m -25,69 h 252 l 28,-22 16,-37 3,-89 m -6,196 H 28.4 M 25.2,561 H 126 l 25,-10 13,-22 V 69.3 L 145,37.8 H 25.2 M 214,69.3 V 532 M 586,416 564,677"
           style="stroke-width:0.1958in"
           transform="matrix(0.0746667,0,0,-0.0746667,431.275,0)"
           id="path202" /><path
           d="m 41,3.15 h 359 m 0,37.75 H 293 L 277,56.7 V 230 m 218,13 94,31 57,47 34,60 -3,69 -25,60 -79,54 -60,25 -100,13 H 37.8 M 34.6,558 H 151 l 13,-16 V 63 L 145,40.9 H 44.1 M 220,47.2 V 529 m 32,22 h 158 l 47,-6 34,-13 35,-22 28,-34 7,-57 -7,-57 -44,-47 -53,-22 -57,-3 H 277 v 192 m 315,9 29,-56 V 391 L 602,340 586,321 M 306,236 h 75 l 29,-16 18,-22 32,-37 88,-129.5 32,-28.35 22,-12.6 h 47 L 696,0 750,9.45 m 3,40.95 -54,-12.6 h -19 l -41,44.1 -72,107.1 -22,25 -16,6 m -28,-37 38,-41 41,-69.6 18,-25.2 13,-9.4"
           style="stroke-width:0.1958in"
           transform="matrix(0.0746667,0,0,-0.0746667,481.376,0)"
           id="path203" /></g><g
         transform="translate(666.424,355.052)"
         id="g211"><path
           d="M 12.6,561 H 101 L 337,-15.8 h 54 L 539,346 m 15,60 167,-418.6 h 51 l 227,554.6 12.2,16 h 88.1 m 0,47 H 794 m 6,-47 h 110 22 l 7,-26 -164,-403 m -19,57 -154,375 h 113 m 3,41 H 397 m 0,-44 h 88 L 529,463 387,123 m -15,60 -155,375 h 41 m 7,44 H 12.6 M 173,529 350,97.7 M 558,532 731,101"
           style="stroke-width:0.1958in"
           transform="scale(0.0746667,-0.0746667)"
           id="path204" /><path
           d="M 53.5,422 37.8,309 44.1,220 94.5,85.1 173,9.45 306,-34.6 416,-15.8 529,50.4 595,161 621,274 608,413 548,523 432,605 299,624 202,598 145,558 m 35,-51 -35,-69 -6,-95 12,-123 35,-103 63,-69.8 107,-18.8 94,47.2 41,85.4 10,126 -10,110 -34,94 -57,63 -69,16 M 107,454 91.4,350 v -89 l 15.6,-69 16,-50 25,-47.5 m 388,63.5 22,85 v 100 l -22,98 -35,66"
           style="stroke-width:0.1958in"
           transform="matrix(0.0746667,0,0,-0.0746667,82.32,0)"
           id="path205" /><path
           d="m 41,3.15 h 359 m 0,37.75 H 293 L 277,56.7 V 230 m 218,13 94,31 57,47 34,60 -3,69 -25,60 -79,54 -60,25 -100,13 H 37.8 M 34.6,558 H 151 l 13,-16 V 63 L 145,40.9 H 44.1 M 220,47.2 V 529 m 32,22 h 158 l 47,-6 34,-13 35,-22 28,-34 7,-57 -7,-57 -44,-47 -53,-22 -57,-3 H 277 v 192 m 315,9 29,-56 V 391 L 602,340 586,321 M 306,236 h 75 l 29,-16 18,-22 32,-37 88,-129.5 32,-28.35 22,-12.6 h 47 L 696,0 750,9.45 m 3,40.95 -54,-12.6 h -19 l -41,44.1 -72,107.1 -22,25 -16,6 m -28,-37 38,-41 41,-69.6 18,-25.2 13,-9.4"
           style="stroke-width:0.1958in"
           transform="matrix(0.0746667,0,0,-0.0746667,131.003,0)"
           id="path206" /><path
           d="M 18.9,3.15 H 350 M 346,37.8 H 261 V 217 l 48,67 217,-287.15 28,-18.95 35,-3.1 38,3.1 97,28.4 M 394,321 432,293 463,261 617,50.4 630,40.9 h 94 M 353,337 l 135,176 48,35 34,10 h 98 m 3,47 H 425 m -63,-3 H 22 m 0,-44 h 107 l 16,-16 V 56.7 L 126,37.8 H 18.9 M 205,50.4 V 558 m 53,-199 v 183 l 19,19 h 79 m 69,-3 h 35 L 258,296 m 126,-25 73,-95 82,-119.3 34,-28.3"
           style="stroke-width:0.1958in"
           transform="matrix(0.0746667,0,0,-0.0746667,187.003,0)"
           id="path207" /><path
           d="M 88.2,-40.9 V 53.6 M 44.1,-44.1 V 243 m 47.3,0 v -63 l 18.6,-54 38,-37.8 66,-37.8 104,-12.6 79,28.4 35,37.8 3,41 -13,38 -44,28 -123,57 -104,60 -62.8,69 -22.1,60 12.7,56 56.2,63 57,22 85,13 h 47 l 54,-16 m 63,48 v -89 m 47,89 7,-249 m -51,3 v 63 l -22,41 -35,38 -44,15 -53,10 -51,-6 -56,-26 -19,-41 28,-59 47,-32 152,-76 59,-31 63,-57 29,-72 L 526,85.1 479,40.9 422,9.45 346,-9.45 H 243 L 151,15.8 m 325,85.2 15,41 -6,41 -31,37 -51,35 -173,88 -50,32 -38,41 -19,44 3,16"
           style="stroke-width:0.1958in"
           transform="matrix(0.0746667,0,0,-0.0746667,241.808,0)"
           id="path208" /><path
           d="M 18.9,-9.45 H 381 m 35,0 H 775 M 772,34.6 H 658 l -15,19 V 539 l 19,19 h 113 m 0,40 H 422 m -44,0 H 15.8 M 22,558 h 110 l 13,-26 V 56.7 L 126,40.9 H 15.8 M 375,37.8 H 280 L 261,56.7 V 302 h 271 m 0,-63 V 59.9 L 510,37.8 H 416 M 586,50.4 V 558 m -164,3 h 88 l 26,-25 V 369 L 517,350 H 261 m -6,63 v 129 l 19,16 h 107 m -176,0 V 44.1"
           style="stroke-width:0.1958in"
           transform="matrix(0.0746667,0,0,-0.0746667,284.816,0)"
           id="path209" /><path
           d="M 53.5,422 37.8,309 44.1,220 94.5,85.1 173,9.45 306,-34.6 416,-15.8 529,50.4 595,161 621,274 608,413 548,523 432,605 299,624 202,598 145,558 m 35,-51 -35,-69 -6,-95 12,-123 35,-103 63,-69.8 107,-18.8 94,47.2 41,85.4 10,126 -10,110 -34,94 -57,63 -69,16 M 107,454 91.4,350 v -89 l 15.6,-69 16,-50 25,-47.5 m 388,63.5 22,85 v 100 l -22,98 -35,66"
           style="stroke-width:0.1958in"
           transform="matrix(0.0746667,0,0,-0.0746667,344.325,0)"
           id="path210" /><path
           d="M 18.9,-3.15 H 403 m 0,40.95 H 280 L 261,56.7 V 158 m -3,44 h 170 l 85,12 95,44 50,73 16,79 -19,66 -66,72 -85,41 -63,9 H 18.9 M 22,558 h 110 l 22,-22 V 59.9 l -22,-19 H 18.9 M 265,482 V 252 h 170 l 53,22 44,41 22,47 -3,85 -28,54 -57,38 -66,15 H 246 M 214,520 V 40.9 m 356,463.1 28,-44 16,-41 v -35 l -16,-47 -28,-38"
           style="stroke-width:0.1958in"
           transform="matrix(0.0746667,0,0,-0.0746667,393.008,0)"
           id="path211" /></g></g></g></svg>
